<svg xmlns="http://www.w3.org/2000/svg" width="500.557" height="499.362" viewBox="0 0 500.557 499.362">
  <defs>
    <style>
      .cls-1 {
        fill: none;
      }

      .cls-2, .cls-3, .cls-4, .cls-5 {
        stroke: none;
      }

      .cls-3 {
        fill: rgba(16,16,16,0.58);
      }

      .cls-4 {
        fill: rgba(1,0,0,0.3);
      }

      .cls-5 {
        fill: rgba(33,34,34,0.3);
      }
    </style>
  </defs>
  <g id="svg_group" data-name="svg group" transform="translate(-630 -185.011)">
    <g id="Path_7" data-name="Path 7" class="cls-1" transform="translate(696.121 247.767)">
      <path class="cls-2" d="M181.165,0A188.625,188.625,0,0,1,307.728,48.568c38.377,34.481,99.491,84.717,99.491,140.615,0,31.554-44.6,61.3-58.274,87.493a189.261,189.261,0,0,1-276.2,67.563C23.914,310.03-32.961,290.265-32.961,226.112c0-29.882,31.87-95.075,44.257-120.3A189.15,189.15,0,0,1,181.165,0Z"/>
      <path class="cls-3" d="M 181.1648864746094 2 C 163.0875091552734 2 145.2142791748047 4.571685791015625 128.0417327880859 9.643524169921875 C 111.4126281738281 14.55490112304688 95.53851318359375 21.77606201171875 80.86029052734375 31.1064453125 C 66.40493774414062 40.29522705078125 53.26644897460938 51.4263916015625 41.80972290039062 64.19073486328125 C 30.31021118164062 77.00274658203125 20.64828491210938 91.30184936523438 13.0921630859375 106.6908874511719 C 7.557891845703125 117.9621276855469 -3.958099365234375 141.4158477783203 -13.626708984375 164.9747314453125 C -25.12860107421875 193.0006713867188 -30.96054077148438 213.5702819824219 -30.96054077148438 226.1122283935547 C -30.96054077148438 232.2697296142578 -30.4150390625 238.2175598144531 -29.3392333984375 243.7906188964844 C -28.31298828125 249.1069030761719 -26.7679443359375 254.2669982910156 -24.74716186523438 259.1275634765625 C -20.99789428710938 268.1453247070312 -15.56454467773438 276.4198913574219 -8.13671875 284.4241943359375 C 5.84735107421875 299.4933471679688 24.69882202148438 311.2275085449219 44.65716552734375 323.6506652832031 C 54.30471801757812 329.6558532714844 64.28082275390625 335.8654479980469 73.89517211914062 342.6002197265625 C 89.28762817382812 353.3825073242188 106.1308898925781 361.7476806640625 123.9571685791016 367.4632873535156 C 142.3820037841797 373.370849609375 161.6295013427734 376.3662414550781 181.1648864746094 376.3662414550781 C 198.8416137695312 376.3662414550781 216.3336181640625 373.9055786132812 233.1549530029297 369.0526123046875 C 249.4515686035156 364.35107421875 265.0496826171875 357.4291687011719 279.5159912109375 348.4792785644531 C 293.7572326660156 339.6686096191406 306.7745666503906 328.9743957519531 318.2063903808594 316.6936645507812 C 329.6662292480469 304.3829040527344 339.4114990234375 290.6073913574219 347.1715698242188 275.7499389648438 C 352.4111022949219 265.7182922363281 361.8551635742188 255.4232330322266 371.8537902832031 244.5237274169922 C 380.0077819824219 235.635009765625 388.4393920898438 226.4436187744141 394.7768249511719 217.0983428955078 C 398.1600646972656 212.1094055175781 400.6438903808594 207.5390167236328 402.3702697753906 203.1260070800781 C 404.2869567871094 198.2266235351562 405.2186584472656 193.6658477783203 405.2186584472656 189.1831207275391 C 405.2186584472656 183.0460052490234 404.4472351074219 176.7235717773438 402.9256591796875 170.3913421630859 C 401.4873962402344 164.4055633544922 399.3361206054688 158.2331237792969 396.531494140625 152.0456237792969 C 393.90283203125 146.2462921142578 390.6198425292969 140.2568359375 386.7737121582031 134.2436218261719 C 383.2144470214844 128.678955078125 379.0567321777344 122.9130096435547 374.4159545898438 117.1060791015625 C 366.4462280273438 107.1335144042969 356.8357849121094 96.72784423828125 345.0356140136719 85.29434204101562 C 334.7231750488281 75.30245971679688 324.0870666503906 65.83267211914062 314.7030639648438 57.47763061523438 C 311.8022766113281 54.89495849609375 309.0623779296875 52.45550537109375 306.39111328125 50.05545043945312 C 298.0552368164062 42.5657958984375 289.0167236328125 35.79000854492188 279.5266723632812 29.91641235351562 C 269.9376831054688 23.9815673828125 259.7711791992188 18.89605712890625 249.3095550537109 14.80117797851562 C 238.6617279052734 10.63339233398438 227.5651702880859 7.43646240234375 216.3280639648438 5.299072265625 C 204.8189544677734 3.109954833984375 192.9883422851562 2 181.1648864746094 2 M 181.1648864746094 0 C 229.7492218017578 0 274.0559997558594 18.31411743164062 307.727783203125 48.56771850585938 C 346.1044921875 83.0482177734375 407.2186584472656 133.2845153808594 407.2186584472656 189.1831207275391 C 407.2186584472656 220.7369537353516 362.623046875 250.4865112304688 348.9443359375 276.6758422851562 C 317.3848876953125 337.0999450683594 254.093994140625 378.3662414550781 181.1648864746094 378.3662414550781 C 140.8346099853516 378.3662414550781 103.451904296875 365.746337890625 72.74771118164062 344.2383422851562 C 23.91354370117188 310.0303955078125 -32.96054077148438 290.264892578125 -32.96054077148438 226.1122283935547 C -32.96054077148438 196.2301177978516 -1.090118408203125 131.0370635986328 11.29690551757812 105.8093872070312 C 42.04840087890625 43.17984008789062 106.5640563964844 0 181.1648864746094 0 Z"/>
    </g>
    <g id="Path_6" data-name="Path 6" class="cls-1" transform="translate(691.894 253.179)">
      <path class="cls-2" d="M187.658-42.2c20.509,0,44.029,35.538,62.557,41.511A191.5,191.5,0,0,1,382.842,181.533c0,105.719-85.7,191.421-191.421,191.421S0,287.252,0,181.533A191.035,191.035,0,0,1,63.45,39.174C97.237,8.723,138.393-42.2,187.658-42.2Z"/>
      <path class="cls-4" d="M 187.6580963134766 -40.20083618164062 C 182.9160461425781 -40.20083618164062 178.0647277832031 -39.70541381835938 173.2388458251953 -38.72830200195312 C 168.6536254882812 -37.7999267578125 163.9466857910156 -36.40731811523438 159.2487335205078 -34.589111328125 C 150.6025848388672 -31.24282836914062 141.8597412109375 -26.4681396484375 132.5206756591797 -19.99224853515625 C 124.7908020019531 -14.6322021484375 116.6127319335938 -8.056427001953125 107.5192565917969 0.11083984375 C 99.47030639648438 7.3399658203125 91.75311279296875 14.85516357421875 84.29000854492188 22.12295532226562 C 77.47967529296875 28.75494384765625 71.04705810546875 35.01922607421875 64.78878784179688 40.65957641601562 C 55.14215087890625 49.35369873046875 46.36105346679688 59.05557250976562 38.68942260742188 69.49591064453125 C 30.95700073242188 80.01890563964844 24.30419921875 91.357421875 18.9158935546875 103.196533203125 C 13.429931640625 115.25 9.21282958984375 127.9167938232422 6.381744384765625 140.8449554443359 C 3.474212646484375 154.1218414306641 2 167.8112182617188 2 181.5327453613281 C 2 194.3860015869141 3.2947998046875 207.2306365966797 5.848358154296875 219.7097930908203 C 8.336883544921875 231.8707427978516 12.05010986328125 243.8326873779297 16.88482666015625 255.2633209228516 C 21.63198852539062 266.4868469238281 27.50772094726562 277.3121032714844 34.34893798828125 287.4384155273438 C 41.12545776367188 297.468994140625 48.907958984375 306.9014282226562 57.48016357421875 315.4735717773438 C 66.05230712890625 324.0458068847656 75.4847412109375 331.8282165527344 85.51531982421875 338.6047973632812 C 95.64163208007812 345.4459533691406 106.4668884277344 351.3217468261719 117.6904296875 356.0689086914062 C 129.1210479736328 360.9036254882812 141.0829925537109 364.6168518066406 153.2440032958984 367.1053771972656 C 165.7231597900391 369.6589660644531 178.5677947998047 370.9537353515625 191.4210510253906 370.9537353515625 C 204.2743072509766 370.9537353515625 217.1189422607422 369.6589660644531 229.5980987548828 367.1053771972656 C 241.7591094970703 364.6168518066406 253.7210540771484 360.9036254882812 265.151611328125 356.0689086914062 C 276.3752136230469 351.3217468261719 287.2004699707031 345.4459533691406 297.3267211914062 338.6047973632812 C 307.3573608398438 331.8282165527344 316.7897338867188 324.0458068847656 325.3619384765625 315.4735717773438 C 333.9341430664062 306.9014282226562 341.7165832519531 297.468994140625 348.4931640625 287.4384155273438 C 355.3343200683594 277.3121032714844 361.2101135253906 266.4868469238281 365.957275390625 255.2633209228516 C 370.7919921875 243.8326873779297 374.5052185058594 231.8707427978516 376.9937438964844 219.7097930908203 C 379.5473022460938 207.2306365966797 380.8421020507812 194.3860015869141 380.8421020507812 181.5327453613281 C 380.8421020507812 160.8997955322266 377.5456848144531 140.613525390625 371.0443725585938 121.2374725341797 C 364.7576293945312 102.5007934570312 355.5838928222656 84.91226196289062 343.7780151367188 68.96047973632812 C 332.1080017089844 53.19232177734375 318.1295776367188 39.373046875 302.2310485839844 27.88668823242188 C 286.1333618164062 16.25643920898438 268.4263610839844 7.282440185546875 249.6018981933594 1.213897705078125 C 241.1712646484375 -1.503875732421875 232.1775817871094 -9.6634521484375 222.6557922363281 -18.30209350585938 C 216.6902618408203 -23.71426391601562 210.5216827392578 -29.31072998046875 204.5124206542969 -33.46682739257812 C 197.9607391357422 -37.99813842773438 192.4476776123047 -40.20083618164062 187.6580963134766 -40.20083618164062 M 187.6580963134766 -42.20083618164062 C 208.1675720214844 -42.20083618164062 231.6866760253906 -6.662841796875 250.2155303955078 -0.68963623046875 C 327.1669311523438 24.11749267578125 382.8421020507812 96.32331848144531 382.8421020507812 181.5327453613281 C 382.8421020507812 287.2515869140625 297.1399536132812 372.9537353515625 191.4210510253906 372.9537353515625 C 85.70211791992188 372.9537353515625 0 287.2515869140625 0 181.5327453613281 C 0 125.0791625976562 24.43817138671875 74.33343505859375 63.4498291015625 39.17388916015625 C 97.23709106445312 8.722686767578125 138.3927307128906 -42.20083618164062 187.6580963134766 -42.20083618164062 Z"/>
    </g>
    <g id="Path_5" data-name="Path 5" class="cls-1" transform="translate(691.894 247.767)">
      <path class="cls-2" d="M189.183,0a188.568,188.568,0,0,1,123.7,46.042C326.24,57.571,361.915,58.2,371.7,73.184c13.383,20.5-.994,56.708,3.614,81.954a190.07,190.07,0,0,1-16.253,117.4c-11.174,22.758-2.868,57.191-21.922,73.752-16.154,14.041-58.77,11.2-79.206,19.2a188.5,188.5,0,0,1-68.748,12.877C84.7,378.366,0,293.666,0,189.183S84.7,0,189.183,0Z"/>
      <path class="cls-3" d="M 189.18310546875 1.999969482421875 C 176.4816589355469 1.999969482421875 163.7888031005859 3.27947998046875 151.4570617675781 5.80291748046875 C 139.4397583007812 8.261962890625 127.6191711425781 11.93133544921875 116.3236083984375 16.70892333984375 C 105.2326965332031 21.4000244140625 94.53530883789062 27.20635986328125 84.52865600585938 33.96673583984375 C 74.61654663085938 40.6632080078125 65.29559326171875 48.35372924804688 56.82470703125 56.82467651367188 C 48.353759765625 65.29556274414062 40.66326904296875 74.61651611328125 33.96676635742188 84.52862548828125 C 27.2064208984375 94.53530883789062 21.40005493164062 105.232666015625 16.70895385742188 116.3236083984375 C 11.93136596679688 127.6191711425781 8.261993408203125 139.4397735595703 5.802947998046875 151.4570770263672 C 3.279510498046875 163.788818359375 2 176.4816741943359 2 189.1831207275391 C 2 201.8845672607422 3.279510498046875 214.5774230957031 5.802947998046875 226.9091644287109 C 8.261993408203125 238.9264678955078 11.93136596679688 250.7470703125 16.70895385742188 262.0426025390625 C 21.40005493164062 273.1335754394531 27.2064208984375 283.8309326171875 33.96676635742188 293.8375854492188 C 40.66326904296875 303.7496643066406 48.353759765625 313.0706787109375 56.82470703125 321.5415649414062 C 65.29559326171875 330.0124816894531 74.61654663085938 337.7029724121094 84.52865600585938 344.3994750976562 C 94.53530883789062 351.1598205566406 105.2326965332031 356.9662170410156 116.3236083984375 361.6572570800781 C 127.6191711425781 366.4348754882812 139.4397583007812 370.1042175292969 151.4570617675781 372.5632629394531 C 163.7888031005859 375.0867309570312 176.4816589355469 376.3662109375 189.18310546875 376.3662109375 C 201.0083618164062 376.3662109375 212.8442077636719 375.2574768066406 224.3619537353516 373.0708312988281 C 235.5835571289062 370.9403686523438 246.6327056884766 367.7630615234375 257.2024536132812 363.6271362304688 C 265.6633605957031 360.3164672851562 277.4732055664062 358.8548583984375 289.9765014648438 357.3074645996094 C 298.9711608886719 356.1943359375 308.2720642089844 355.0432739257812 316.4205627441406 353.1467590332031 C 325.4098510742188 351.0546264648438 331.75732421875 348.3186645507812 335.8256225585938 344.7826538085938 C 338.33447265625 342.6020812988281 340.4047241210938 340.0480346679688 342.1547241210938 336.9745178222656 C 343.7371520996094 334.1952819824219 345.0244445800781 331.0442199707031 346.0901489257812 327.3414306640625 C 348.1069946289062 320.3336181640625 349.0090942382812 312.3003540039062 349.8815612792969 304.5315551757812 C 351.1584167480469 293.1616821289062 352.4786987304688 281.4046630859375 357.2640991210938 271.6585083007812 C 363.4490051269531 259.0622253417969 368.2076721191406 245.7715148925781 371.4078979492188 232.1556701660156 C 374.697998046875 218.1573638916016 376.3662719726562 203.6992645263672 376.3662719726562 189.1831207275391 C 376.3662719726562 177.8134765625 375.3496704101562 166.4798278808594 373.3446044921875 155.4968719482422 C 372.4786682128906 150.7531280517578 372.1902465820312 145.2116241455078 372.4630126953125 138.5558166503906 C 372.703369140625 132.6899719238281 373.3464965820312 126.5228271484375 373.9684448242188 120.5587158203125 C 374.8681640625 111.9310302734375 375.7985229492188 103.009521484375 375.5022583007812 94.98690795898438 C 375.3451538085938 90.732666015625 374.8659973144531 87.05950927734375 374.037353515625 83.75747680664062 C 373.1234436035156 80.11566162109375 371.810302734375 77.01467895507812 370.02294921875 74.27713012695312 C 364.9780578613281 66.55038452148438 351.7771606445312 62.7420654296875 339.0108947753906 59.05917358398438 C 333.8434143066406 57.56842041015625 328.4999694824219 56.02691650390625 323.801513671875 54.23956298828125 C 318.3352966308594 52.16006469726562 314.4510192871094 50.03631591796875 311.5775146484375 47.55581665039062 C 303.33447265625 40.44021606445312 294.4348754882812 34.0089111328125 285.1259765625 28.44058227539062 C 275.7163696289062 22.81198120117188 265.7654418945312 17.99188232421875 255.5497131347656 14.11422729492188 C 234.3725128173828 6.075775146484375 212.0435638427734 1.999969482421875 189.18310546875 1.999969482421875 M 189.18310546875 -3.0517578125e-05 C 236.4091644287109 -3.0517578125e-05 279.5935668945312 17.30441284179688 312.8843994140625 46.0418701171875 C 326.2404479980469 57.57110595703125 361.9154052734375 58.20132446289062 371.6976013183594 73.1837158203125 C 385.0811157226562 93.68167114257812 370.7035217285156 129.8919677734375 375.3121032714844 155.1377258300781 C 377.3076477050781 166.0688171386719 378.3662719726562 177.5023651123047 378.3662719726562 189.1831207275391 C 378.3662719726562 219.0652160644531 371.4381103515625 247.3291778564453 359.0593566894531 272.5400390625 C 347.8849487304688 295.2982788085938 356.1914672851562 329.7314147949219 337.1376037597656 346.2921752929688 C 320.9833984375 360.3328857421875 278.3675537109375 357.4930725097656 257.9312744140625 365.4896240234375 C 236.7518005371094 373.7771301269531 213.5033569335938 378.3662109375 189.18310546875 378.3662109375 C 84.7001953125 378.3662109375 0 293.6660766601562 0 189.1831207275391 C 0 84.70016479492188 84.7001953125 -3.0517578125e-05 189.18310546875 -3.0517578125e-05 Z"/>
    </g>
    <g id="Path_4" data-name="Path 4" class="cls-1" transform="translate(691.894 248.211)">
      <path class="cls-2" d="M189.381-.839a190.509,190.509,0,0,1,38.926,4.007C259.953,9.75,274.7-18.205,312.218,7.922c28.647,27.373,32.355,78.309,39.714,87.411,5.073,9.807,26.829,48.109,26.829,93.209,0,104.592-84.789,189.381-189.381,189.381S0,293.134,0,188.542,84.789-.839,189.381-.839Z"/>
      <path class="cls-3" d="M 280.95166015625 -1.46026611328125 C 273.87646484375 -1.459716796875 267.5217895507812 0.324737548828125 260.7940673828125 2.21392822265625 C 253.807861328125 4.17572021484375 246.5838012695312 6.20428466796875 238.2859954833984 6.20428466796875 C 234.7857055664062 6.20428466796875 231.3881988525391 5.851531982421875 227.8993072509766 5.125946044921875 C 221.6074066162109 3.817230224609375 215.1991577148438 2.8204345703125 208.8526000976562 2.163238525390625 C 202.4303588867188 1.4981689453125 195.8790588378906 1.160980224609375 189.3807525634766 1.160980224609375 C 176.6659088134766 1.160980224609375 163.9596099853516 2.44183349609375 151.6148529052734 4.967926025390625 C 139.5848999023438 7.42962646484375 127.7518005371094 11.10284423828125 116.4443054199219 15.88546752929688 C 105.3416442871094 20.58148193359375 94.63299560546875 26.39398193359375 84.61581420898438 33.16146850585938 C 74.69320678710938 39.86502075195312 65.36239624023438 47.56369018554688 56.88253784179688 56.04351806640625 C 48.4027099609375 64.52337646484375 40.70404052734375 73.85418701171875 34.00048828125 83.77679443359375 C 27.23300170898438 93.79397583007812 21.42050170898438 104.5026245117188 16.72451782226562 115.6052856445312 C 11.94186401367188 126.9127807617188 8.268646240234375 138.7458801269531 5.80694580078125 150.7758331298828 C 3.280853271484375 163.1205749511719 2 175.8268890380859 2 188.5417327880859 C 2 201.2565765380859 3.280853271484375 213.9628295898438 5.80694580078125 226.3075866699219 C 8.268646240234375 238.3375854492188 11.94186401367188 250.1706848144531 16.72451782226562 261.4781494140625 C 21.42050170898438 272.5807800292969 27.23300170898438 283.2894287109375 34.00048828125 293.3066711425781 C 40.70404052734375 303.229248046875 48.4027099609375 312.5600280761719 56.88253784179688 321.0398864746094 C 65.36239624023438 329.5197448730469 74.69320678710938 337.2183837890625 84.61581420898438 343.9219360351562 C 94.63299560546875 350.6894226074219 105.3416442871094 356.5019226074219 116.4443054199219 361.1979370117188 C 127.7518005371094 365.9805908203125 139.5848999023438 369.6537780761719 151.6148529052734 372.115478515625 C 163.9596099853516 374.6415710449219 176.6659088134766 375.9224243164062 189.3807525634766 375.9224243164062 C 202.0955963134766 375.9224243164062 214.8018951416016 374.6415710449219 227.1466522216797 372.115478515625 C 239.1766052246094 369.6537780761719 251.0097045898438 365.9805908203125 262.3171997070312 361.1979370117188 C 273.4198608398438 356.5019226074219 284.1285095214844 350.6894226074219 294.1456909179688 343.9219360351562 C 304.0682983398438 337.2183837890625 313.3991088867188 329.5197448730469 321.8789672851562 321.0398864746094 C 330.3587951660156 312.5600280761719 338.0574645996094 303.229248046875 344.760986328125 293.3066711425781 C 351.5285034179688 283.2894287109375 357.3410034179688 272.5807800292969 362.0369873046875 261.4781494140625 C 366.8196411132812 250.1706848144531 370.4928588867188 238.3375854492188 372.9545593261719 226.3075866699219 C 375.4806518554688 213.9628295898438 376.7615051269531 201.2565765380859 376.7615051269531 188.5417327880859 C 376.7615051269531 170.6959381103516 373.2983093261719 151.8169250488281 366.4681091308594 132.4292297363281 C 360.9045104980469 116.6368255615234 354.637939453125 104.7590789794922 351.2713623046875 98.37786865234375 C 350.880615234375 97.63720703125 350.5382080078125 96.98825073242188 350.24365234375 96.42105102539062 C 347.6602783203125 93.06735229492188 345.7068786621094 85.89761352539062 343.02099609375 76.03842163085938 C 340.3429565429688 66.20819091796875 337.0101013183594 53.97409057617188 331.9734497070312 41.9898681640625 C 329.258544921875 35.53009033203125 326.2549438476562 29.66622924804688 323.0462036132812 24.56121826171875 C 319.3941650390625 18.75119018554688 315.3242797851562 13.67599487304688 310.9480590820312 9.4744873046875 C 300.19775390625 2.0137939453125 290.663330078125 -1.461029052734375 280.95166015625 -1.46026611328125 M 280.9514770507812 -3.46026611328125 C 289.8337707519531 -3.460968017578125 299.7709045410156 -0.745269775390625 312.2183532714844 7.921783447265625 C 340.8651428222656 35.29513549804688 344.5735473632812 86.23062133789062 351.9320678710938 95.33236694335938 C 357.0052490234375 105.1393890380859 378.7615051269531 143.4414367675781 378.7615051269531 188.5417327880859 C 378.7615051269531 293.1337890625 293.9728393554688 377.9224243164062 189.3807525634766 377.9224243164062 C 84.78866577148438 377.9224243164062 0 293.1337890625 0 188.5417327880859 C 0 83.94964599609375 84.78866577148438 -0.839019775390625 189.3807525634766 -0.839019775390625 C 202.6533966064453 -0.839019775390625 215.6071472167969 0.5263671875 228.3066101074219 3.1678466796875 C 231.8220672607422 3.899017333984375 235.1333618164062 4.20428466796875 238.2860107421875 4.20428466796875 C 254.0995178222656 4.20428466796875 266.0321960449219 -3.4591064453125 280.9514770507812 -3.46026611328125 Z"/>
    </g>
    <g id="Path_3" data-name="Path 3" class="cls-1" transform="translate(692.393 247.767)">
      <path class="cls-2" d="M188.236,0C292.719,0,377.419,84.7,377.419,189.183a189.056,189.056,0,0,1-12.31,67.273c-8.839,23.312,4.811,60.706-12.11,78.683-14.416,15.316-58.509,12.048-77.527,21.968a189.523,189.523,0,0,1-175.854-.746c-30.326-16.077-75.8-10.607-93.576-40.151C-11,287.887-.947,224.812-.947,189.183-.947,84.7,83.753,0,188.236,0Z"/>
      <path class="cls-3" d="M 188.2359313964844 2 C 175.5344696044922 2 162.8416290283203 3.279510498046875 150.5098724365234 5.802947998046875 C 138.4925689697266 8.261993408203125 126.6719818115234 11.93136596679688 115.3764190673828 16.70895385742188 C 104.2854614257812 21.39999389648438 93.588134765625 27.20639038085938 83.5814208984375 33.96676635742188 C 73.6693115234375 40.66326904296875 64.348388671875 48.353759765625 55.87747192382812 56.82464599609375 C 47.40652465820312 65.29556274414062 39.71603393554688 74.61654663085938 33.01953125 84.52865600585938 C 26.25918579101562 94.53530883789062 20.45281982421875 105.232666015625 15.76171875 116.3236083984375 C 10.984130859375 127.6191558837891 7.314788818359375 139.4397583007812 4.855712890625 151.4570617675781 C 2.332275390625 163.7888031005859 1.052764892578125 176.4816589355469 1.052764892578125 189.18310546875 C 1.052764892578125 198.2126007080078 0.41021728515625 209.0084991455078 -0.27008056640625 220.4383087158203 C -1.26312255859375 237.1237030029297 -2.38873291015625 256.0352478027344 -1.657073974609375 273.0001220703125 C -0.827423095703125 292.2367553710938 2.251312255859375 306.0334167480469 7.755126953125 315.1785583496094 C 10.29193115234375 319.3937683105469 13.46017456054688 322.9692687988281 17.44088745117188 326.1093139648438 C 21.0245361328125 328.9362182617188 25.20101928710938 331.3527221679688 30.208984375 333.4969177246094 C 39.65322875976562 337.5404968261719 50.30657958984375 339.8916625976562 61.58541870117188 342.3809204101562 C 75.00448608398438 345.3424987792969 88.88037109375 348.4049072265625 100.5543212890625 354.5934448242188 C 113.8348236083984 361.6338195800781 127.9136199951172 367.0549926757812 142.3996276855469 370.7064514160156 C 157.2983703613281 374.4620056152344 172.719970703125 376.3662109375 188.2359313964844 376.3662109375 C 203.5348815917969 376.3662109375 218.7522735595703 374.5180969238281 233.4654693603516 370.8731994628906 C 247.73388671875 367.3385009765625 261.5555419921875 362.1101989746094 274.5465087890625 355.3334655761719 C 282.9053649902344 350.9732055664062 295.4339294433594 349.1422119140625 308.6981201171875 347.2037658691406 C 317.341064453125 345.9406433105469 326.2783203125 344.634521484375 333.936767578125 342.5776672363281 C 342.3241882324219 340.3250122070312 348.0830688476562 337.4432678222656 351.5425415039062 333.7677612304688 C 353.711669921875 331.4631652832031 355.4022216796875 328.7638549804688 356.7108154296875 325.5155639648438 C 357.8997802734375 322.564208984375 358.746337890625 319.2202453613281 359.298828125 315.2926025390625 C 360.3450622558594 307.8550415039062 360.144287109375 299.3824157714844 359.9501342773438 291.1886596679688 C 359.8047180175781 285.0526733398438 359.6543884277344 278.707763671875 360.0176391601562 272.7361450195312 C 360.4317626953125 265.9279479980469 361.4854125976562 260.37060546875 363.2386779785156 255.7465057373047 C 371.3209838867188 234.4310607910156 375.4190368652344 212.0359039306641 375.4190368652344 189.18310546875 C 375.4190368652344 176.4816589355469 374.1395263671875 163.7888031005859 371.6160888671875 151.4570617675781 C 369.1570129394531 139.4397583007812 365.4876708984375 127.6191558837891 360.7100830078125 116.3236083984375 C 356.0190124511719 105.232666015625 350.2126159667969 94.53530883789062 343.4522705078125 84.52865600585938 C 336.7557678222656 74.61654663085938 329.0652770996094 65.29556274414062 320.5943603515625 56.82464599609375 C 312.1234741210938 48.353759765625 302.802490234375 40.66326904296875 292.890380859375 33.96676635742188 C 282.8837280273438 27.20639038085938 272.1863708496094 21.39999389648438 261.0954284667969 16.70895385742188 C 249.7998657226562 11.93136596679688 237.9792785644531 8.261993408203125 225.9619750976562 5.802947998046875 C 213.6302337646484 3.279510498046875 200.9373779296875 2 188.2359313964844 2 M 188.2359313964844 0 C 292.7188720703125 0 377.4190368652344 84.70016479492188 377.4190368652344 189.18310546875 C 377.4190368652344 212.7963104248047 373.0928649902344 235.3990478515625 365.1087646484375 256.4555969238281 C 356.2694702148438 279.7680969238281 369.9193725585938 317.1614685058594 352.9988708496094 335.1384887695312 C 338.5832214355469 350.4544982910156 294.4896850585938 347.1861572265625 275.4715270996094 357.106689453125 C 249.5123748779297 370.6482543945312 219.7754821777344 378.3662109375 188.2359313964844 378.3662109375 C 156.2879791259766 378.3662109375 126.1896209716797 370.4470520019531 99.61758422851562 356.3605041503906 C 69.29116821289062 340.2839660644531 23.82186889648438 345.7539672851562 6.041534423828125 316.2098388671875 C -11.0037841796875 287.8872680664062 -0.947235107421875 224.8123016357422 -0.947235107421875 189.18310546875 C -0.947235107421875 84.70016479492188 83.75299072265625 0 188.2359313964844 0 Z"/>
    </g>
    <g id="Path_2" data-name="Path 2" class="cls-1" transform="translate(691.894 248.413)">
      <path class="cls-2" d="M189.47-1.22c43.635,0,95.4-13.8,127.542,11.071,26,20.12,35.056,75.463,47.8,106.464A188.883,188.883,0,0,1,378.94,188.25c0,104.641-84.829,189.47-189.47,189.47S0,292.892,0,188.25,84.829-1.22,189.47-1.22Z"/>
      <path class="cls-3" d="M 261.0355224609375 -3.037322998046875 C 249.3511810302734 -3.037322998046875 237.0008239746094 -2.0628662109375 225.05712890625 -1.120452880859375 C 213.2134246826172 -0.18597412109375 200.9664764404297 0.78033447265625 189.4699249267578 0.78033447265625 C 176.7490234375 0.78033447265625 164.0367279052734 2.061798095703125 151.6860809326172 4.589080810546875 C 139.6503753662109 7.05194091796875 127.8116302490234 10.72689819335938 116.498779296875 15.5118408203125 C 105.3908386230469 20.2100830078125 94.67706298828125 26.02532958984375 84.65505981445312 32.79608154296875 C 74.72781372070312 39.50283813476562 65.392578125 47.20513916015625 56.90866088867188 55.68902587890625 C 48.42477416992188 64.17294311523438 40.72247314453125 73.5081787109375 34.01571655273438 83.43545532226562 C 27.24496459960938 93.45742797851562 21.42971801757812 104.1712036132812 16.73147583007812 115.2791442871094 C 11.946533203125 126.5919952392578 8.271575927734375 138.4307403564453 5.8087158203125 150.4664459228516 C 3.28143310546875 162.8170928955078 1.999969482421875 175.5293884277344 1.999969482421875 188.2502899169922 C 1.999969482421875 200.97119140625 3.28143310546875 213.6834869384766 5.8087158203125 226.0341339111328 C 8.271575927734375 238.0698394775391 11.946533203125 249.9085998535156 16.73147583007812 261.221435546875 C 21.42971801757812 272.329345703125 27.24496459960938 283.0431518554688 34.01571655273438 293.0650939941406 C 40.72247314453125 302.9924011230469 48.42477416992188 312.32763671875 56.90866088867188 320.8115539550781 C 65.392578125 329.2954406738281 74.72781372070312 336.9977416992188 84.65505981445312 343.7044372558594 C 94.67706298828125 350.4751892089844 105.3908386230469 356.2904357910156 116.498779296875 360.9886779785156 C 127.8116302490234 365.7736511230469 139.6503753662109 369.4485778808594 151.6860809326172 371.9114379882812 C 164.0367279052734 374.4387512207031 176.7490234375 375.7201843261719 189.4699249267578 375.7201843261719 C 202.1908264160156 375.7201843261719 214.9031219482422 374.4387512207031 227.2537689208984 371.9114379882812 C 239.2894744873047 369.4485778808594 251.1282348632812 365.7736511230469 262.4410705566406 360.9886779785156 C 273.5489807128906 356.2904357910156 284.2627563476562 350.4751892089844 294.2847290039062 343.7044372558594 C 304.2120361328125 336.9977416992188 313.5472717285156 329.2954406738281 322.0311889648438 320.8115539550781 C 330.5150756835938 312.32763671875 338.2173767089844 302.9924011230469 344.924072265625 293.0650939941406 C 351.69482421875 283.0431518554688 357.5100708007812 272.329345703125 362.2083129882812 261.221435546875 C 366.9932861328125 249.9085998535156 370.668212890625 238.0698394775391 373.1310729980469 226.0341339111328 C 375.6583862304688 213.6834869384766 376.9398193359375 200.97119140625 376.9398193359375 188.2502899169922 C 376.9398193359375 175.8526458740234 375.7230224609375 163.4550476074219 373.3232116699219 151.4018402099609 C 370.9857177734375 139.6614837646484 367.4999694824219 128.1126861572266 362.9627380371094 117.0762481689453 C 359.2711791992188 108.0967407226562 355.9114685058594 97.17645263671875 352.3545227050781 85.61492919921875 C 343.6701354980469 57.3870849609375 333.8269653320312 25.39300537109375 315.7879638671875 11.43350219726562 C 312.2318115234375 8.681549072265625 308.259765625 6.306427001953125 303.982177734375 4.3741455078125 C 299.9571228027344 2.555877685546875 295.5086669921875 1.061248779296875 290.7604370117188 -0.06829833984375 C 282.3621826171875 -2.066162109375 272.6390686035156 -3.037322998046875 261.0355224609375 -3.037322998046875 M 261.0355224609375 -5.037322998046875 C 282.1362915039062 -5.037322998046875 301.7765502929688 -1.938201904296875 317.011962890625 9.851776123046875 C 343.0120849609375 29.97198486328125 352.0677185058594 85.31472778320312 364.8125305175781 116.3157958984375 C 373.9020385742188 138.4253387451172 378.9398193359375 162.7494964599609 378.9398193359375 188.2502899169922 C 378.9398193359375 292.8916320800781 294.1112670898438 377.7201843261719 189.4699249267578 377.7201843261719 C 84.82858276367188 377.7201843261719 -3.0517578125e-05 292.8916320800781 -3.0517578125e-05 188.2502899169922 C -3.0517578125e-05 83.60894775390625 84.82858276367188 -1.21966552734375 189.4699249267578 -1.21966552734375 C 212.4194488525391 -1.21966552734375 237.6255493164062 -5.037322998046875 261.0355224609375 -5.037322998046875 Z"/>
    </g>
    <g id="Path_1" data-name="Path 1" class="cls-1" transform="translate(691.894 247.767)">
      <path class="cls-2" d="M189.183,0C293.666,0,378.366,84.7,378.366,189.183s-84.7,189.183-189.183,189.183S0,293.666,0,189.183A188.834,188.834,0,0,1,12.238,122.12c9.6-25.377,2.471-61.9,21.543-80.859,13.354-13.272,50.891-10.966,67.955-19.9A188.287,188.287,0,0,1,189.183,0Z"/>
      <path class="cls-3" d="M 189.18310546875 1.999969482421875 C 173.8399047851562 1.999969482421875 158.5789031982422 3.858428955078125 143.8240051269531 7.523681640625 C 129.5199584960938 11.07687377929688 115.6715087890625 16.33010864257812 102.6632995605469 23.13748168945312 C 95.082763671875 27.10430908203125 84.08749389648438 28.86282348632812 72.44671630859375 30.72451782226562 C 57.6656494140625 33.08847045898438 42.38134765625 35.53292846679688 35.19125366210938 42.6793212890625 C 32.54595947265625 45.30856323242188 30.36044311523438 48.3485107421875 28.50991821289062 51.97286987304688 C 26.8404541015625 55.24261474609375 25.48175048828125 58.92001342773438 24.35610961914062 63.2152099609375 C 22.23519897460938 71.3082275390625 21.28765869140625 80.44561767578125 20.37130737304688 89.2822265625 C 19.17755126953125 100.79345703125 17.94320678710938 112.6966247558594 14.10894775390625 122.828125 C 6.074066162109375 144.0591278076172 2 166.3841705322266 2 189.1831207275391 C 2 201.8845672607422 3.279510498046875 214.5774230957031 5.802947998046875 226.9091644287109 C 8.261993408203125 238.9264678955078 11.93136596679688 250.7470703125 16.70895385742188 262.0426025390625 C 21.39999389648438 273.1335754394531 27.20639038085938 283.8309326171875 33.96676635742188 293.8375854492188 C 40.66326904296875 303.7496643066406 48.353759765625 313.0706787109375 56.82464599609375 321.5415649414062 C 65.29556274414062 330.0124816894531 74.61654663085938 337.7029724121094 84.52865600585938 344.3994750976562 C 94.53530883789062 351.1598205566406 105.232666015625 356.9662170410156 116.3236083984375 361.6572570800781 C 127.6191558837891 366.4348754882812 139.4397583007812 370.1042175292969 151.4570617675781 372.5632629394531 C 163.7888031005859 375.0867309570312 176.4816589355469 376.3662109375 189.18310546875 376.3662109375 C 201.8845520019531 376.3662109375 214.5774078369141 375.0867309570312 226.9091491699219 372.5632629394531 C 238.9264526367188 370.1042175292969 250.7470550537109 366.4348754882812 262.0426025390625 361.6572570800781 C 273.133544921875 356.9662170410156 283.8309020996094 351.1598205566406 293.8375549316406 344.3994750976562 C 303.7496643066406 337.7029724121094 313.0706481933594 330.0124816894531 321.5415649414062 321.5415649414062 C 330.012451171875 313.0706787109375 337.7029418945312 303.7496643066406 344.3994445800781 293.8375854492188 C 351.1597900390625 283.8309326171875 356.9662170410156 273.1335754394531 361.6572570800781 262.0426025390625 C 366.4348449707031 250.7470703125 370.1042175292969 238.9264678955078 372.5632629394531 226.9091644287109 C 375.0867004394531 214.5774230957031 376.3662109375 201.8845672607422 376.3662109375 189.1831207275391 C 376.3662109375 176.4816741943359 375.0867004394531 163.788818359375 372.5632629394531 151.4570770263672 C 370.1042175292969 139.4397735595703 366.4348449707031 127.6191711425781 361.6572570800781 116.3236083984375 C 356.9662170410156 105.232666015625 351.1597900390625 94.53530883789062 344.3994445800781 84.52862548828125 C 337.7029418945312 74.61651611328125 330.012451171875 65.29556274414062 321.5415649414062 56.82467651367188 C 313.0706481933594 48.35372924804688 303.7496643066406 40.6632080078125 293.8375549316406 33.96673583984375 C 283.8309020996094 27.20635986328125 273.133544921875 21.4000244140625 262.0426025390625 16.70892333984375 C 250.7470550537109 11.93133544921875 238.9264526367188 8.261962890625 226.9091491699219 5.80291748046875 C 214.5774078369141 3.27947998046875 201.8845520019531 1.999969482421875 189.18310546875 1.999969482421875 M 189.18310546875 -3.0517578125e-05 C 293.6660461425781 -3.0517578125e-05 378.3662109375 84.70016479492188 378.3662109375 189.1831207275391 C 378.3662109375 293.6660766601562 293.6660461425781 378.3662109375 189.18310546875 378.3662109375 C 84.70016479492188 378.3662109375 0 293.6660766601562 0 189.1831207275391 C 0 165.6331176757812 4.303070068359375 143.0881652832031 12.2384033203125 122.1202087402344 C 21.8424072265625 96.742919921875 14.70895385742188 60.21728515625 33.78134155273438 41.26083374023438 C 47.13491821289062 27.98843383789062 84.672607421875 30.29461669921875 101.7359924316406 21.36541748046875 C 127.7247009277344 7.7652587890625 157.5471038818359 -3.0517578125e-05 189.18310546875 -3.0517578125e-05 Z"/>
    </g>
    <g id="Path_8" data-name="Path 8" class="cls-1" transform="translate(692.635 247.767)">
      <path class="cls-2" d="M188.252,0C292.991,0,377.9,84.908,377.9,189.647A189.368,189.368,0,0,1,367.164,252.7c-20.42,57.955-34.2,105.708-64.59,126.592-23.073,13.989-96.637,0-114.322,0-104.739,0-189.647-84.908-189.647-189.647,0-26.5-9.861-82.441,0-105.453,11.227-26.2,44.316-25.9,68.488-38.892C104.7,25.086,140.369,0,188.252,0Z"/>
      <path class="cls-3" d="M 188.2521057128906 1.999969482421875 C 178.6986541748047 1.999969482421875 169.4245452880859 2.98663330078125 159.89990234375 5.016265869140625 C 151.4045562744141 6.826568603515625 142.9022064208984 9.4317626953125 133.9071044921875 12.980712890625 C 117.137451171875 19.59713745117188 101.1719970703125 28.57666015625 85.73220825195312 37.2606201171875 C 79.95089721679688 40.51223754882812 73.97274780273438 43.87457275390625 68.03985595703125 47.06341552734375 C 60.01651000976562 51.37582397460938 51.0343017578125 54.2520751953125 42.34780883789062 57.03363037109375 C 24.50924682617188 62.74578857421875 7.660064697265625 68.14117431640625 0.443511962890625 84.9815673828125 C -2.505950927734375 91.86447143554688 -3.884552001953125 102.5271301269531 -3.77099609375 117.5788879394531 C -3.670745849609375 130.873779296875 -2.41009521484375 145.8069305419922 -1.297882080078125 158.9821319580078 C -0.319183349609375 170.5752716064453 0.605194091796875 181.5254821777344 0.605194091796875 189.6468811035156 C 0.605194091796875 202.3797760009766 1.887847900390625 215.1040802001953 4.41754150390625 227.4663696289062 C 6.88275146484375 239.5134735107422 10.5611572265625 251.3633270263672 15.35061645507812 262.6868896484375 C 20.05331420898438 273.8052673339844 25.87405395507812 284.5291748046875 32.65115356445312 294.5606079101562 C 39.3642578125 304.4972839355469 47.07379150390625 313.84130859375 55.56570434570312 322.3332214355469 C 64.05764770507812 330.8251342773438 73.40170288085938 338.53466796875 83.33834838867188 345.2477722167969 C 93.36981201171875 352.0248718261719 104.0936584472656 357.8456420898438 115.2120971679688 362.54833984375 C 126.5356597900391 367.3377685546875 138.385498046875 371.0161743164062 150.4326019287109 373.4813842773438 C 162.7949066162109 376.0110778808594 175.5191955566406 377.2937316894531 188.2521057128906 377.2937316894531 C 192.9099578857422 377.2937316894531 201.0615997314453 378.2083129882812 211.3819580078125 379.3662719726562 C 227.8405456542969 381.2129211425781 248.3239135742188 383.5111694335938 266.6105041503906 383.5111694335938 C 274.5286865234375 383.5111694335938 281.3922424316406 383.061767578125 287.0106201171875 382.1754150390625 C 293.217529296875 381.1962585449219 298.0880737304688 379.6613159179688 301.48876953125 377.6127014160156 C 313.6293029785156 369.2532653808594 323.8405151367188 355.9810485839844 333.6220092773438 335.8492736816406 C 337.7133483886719 327.4287109375 341.7744445800781 317.7724609375 346.402587890625 305.4605102539062 C 350.5401916503906 294.4535217285156 354.6149597167969 282.6979370117188 358.9288940429688 270.2521362304688 C 360.9769592285156 264.343505859375 363.0946960449219 258.2337646484375 365.2778930664062 252.0373687744141 C 372.3255004882812 232.0349731445312 375.8989562988281 211.0437774658203 375.8989562988281 189.6468811035156 C 375.8989562988281 176.9139709472656 374.6163024902344 164.1896209716797 372.0866088867188 151.8273773193359 C 369.6213989257812 139.7802734375 365.9429931640625 127.9303894042969 361.153564453125 116.6068115234375 C 356.4508666992188 105.4884338378906 350.6300964355469 94.7645263671875 343.8529968261719 84.73306274414062 C 337.139892578125 74.79641723632812 329.4303588867188 65.45236206054688 320.9384460449219 56.96047973632812 C 312.4465637207031 48.46856689453125 303.1024475097656 40.759033203125 293.1658020019531 34.04592895507812 C 283.1343383789062 27.26882934570312 272.4104919433594 21.44808959960938 261.2921142578125 16.745361328125 C 249.9685516357422 11.9559326171875 238.11865234375 8.27752685546875 226.0716094970703 5.81231689453125 C 213.7093048095703 3.282623291015625 200.9850006103516 1.999969482421875 188.2521057128906 1.999969482421875 M 188.2521057128906 -3.0517578125e-05 C 292.9910888671875 -3.0517578125e-05 377.8989562988281 84.90777587890625 377.8989562988281 189.6468811035156 C 377.8989562988281 211.746826171875 374.1187438964844 232.9638824462891 367.1642456054688 252.7020263671875 C 346.7446594238281 310.6570739746094 332.9612426757812 358.4104309082031 302.5739440917969 379.2937316894531 C 294.883544921875 383.95654296875 281.5809326171875 385.5111999511719 266.6105041503906 385.5111999511719 C 236.6669311523438 385.5111999511719 200.0426635742188 379.2937316894531 188.2521057128906 379.2937316894531 C 83.5130615234375 379.2937316894531 -1.394805908203125 294.3859252929688 -1.394805908203125 189.6468811035156 C -1.394805908203125 163.1478271484375 -11.25595092773438 107.205810546875 -1.394805908203125 84.19381713867188 C 9.8326416015625 57.99346923828125 42.92129516601562 58.29351806640625 67.093017578125 45.30178833007812 C 104.7038879394531 25.08627319335938 140.3691101074219 -3.0517578125e-05 188.2521057128906 -3.0517578125e-05 Z"/>
    </g>
    <g id="Path_9" data-name="Path 9" class="cls-1" transform="translate(691.894 254.01)">
      <path class="cls-2" d="M207.988-48.674c27.263,0,36.943,43.02,60.506,53.318A192.673,192.673,0,0,1,357.41,83.823c16.538,28.265,63.446,61.3,63.446,96.567,0,37.7-48.268,72.854-67.1,102.56a191.564,191.564,0,0,1-162.027,89.173C85.842,372.124,0,286.281,0,180.39A191.614,191.614,0,0,1,91.237,17.072C120.46-.948,171.137-48.674,207.988-48.674Z"/>
      <path class="cls-3" d="M 207.9875335693359 -46.67388916015625 C 196.3613739013672 -46.67388916015625 182.2180480957031 -41.7392578125 164.7494201660156 -31.58792114257812 C 149.4005737304688 -22.6685791015625 133.7551574707031 -11.04104614257812 119.9514770507812 -0.782318115234375 C 109.8009948730469 6.761383056640625 100.2134094238281 13.88674926757812 92.28683471679688 18.774658203125 C 78.79837036132812 27.09222412109375 66.3619384765625 37.0980224609375 55.32321166992188 48.51394653320312 C 44.27236938476562 59.9423828125 34.68453979492188 72.7198486328125 26.82595825195312 86.49143981933594 C 18.83419799804688 100.4964294433594 12.66464233398438 115.4750671386719 8.4886474609375 131.0112152099609 C 4.18310546875 147.0292816162109 2 163.6425933837891 2 180.3896942138672 C 2 193.2642211914062 3.29693603515625 206.1300048828125 5.854736328125 218.6297912597656 C 8.347381591796875 230.8109130859375 12.06668090820312 242.7925872802734 16.909423828125 254.2420654296875 C 21.6644287109375 265.4841613769531 27.54989624023438 276.3272705078125 34.40237426757812 286.4703369140625 C 41.19009399414062 296.5174865722656 48.98541259765625 305.9654846191406 57.57177734375 314.5517883300781 C 66.15811157226562 323.13818359375 75.60610961914062 330.9334716796875 85.65325927734375 337.7212219238281 C 95.79632568359375 344.5736999511719 106.6394348144531 350.4591674804688 117.8815307617188 355.2141723632812 C 129.3309936523438 360.0569152832031 141.3126831054688 363.7762145996094 153.4938049316406 366.2688598632812 C 165.9935760498047 368.8266296386719 178.859375 370.1235961914062 191.7339019775391 370.1235961914062 C 208.2765350341797 370.1235961914062 224.6947326660156 367.9928588867188 240.5324249267578 363.7906494140625 C 255.8949432373047 359.7144165039062 270.723876953125 353.6894226074219 284.6073608398438 345.8828430175781 C 298.2557373046875 338.2085266113281 310.9484252929688 328.8385925292969 322.3328552246094 318.0333251953125 C 333.6976318359375 307.2467041015625 343.7030639648438 295.0827941894531 352.0712585449219 281.8794250488281 C 358.3105163574219 272.0351257324219 367.5989990234375 261.7522277832031 377.432861328125 250.8656005859375 C 387.4666442871094 239.7575988769531 397.842041015625 228.2713775634766 405.7387390136719 216.3884887695312 C 409.9721069335938 210.0181579589844 413.0846252441406 204.1622772216797 415.254150390625 198.4862213134766 C 416.4249877929688 195.4230651855469 417.3206787109375 192.3846893310547 417.9164123535156 189.4556427001953 C 418.5399475097656 186.3898468017578 418.8561096191406 183.3396453857422 418.8561096191406 180.3896942138672 C 418.8561096191406 177.7287445068359 418.56884765625 174.9758605957031 418.0023803710938 172.2074890136719 C 417.4604797363281 169.5594329833984 416.6453247070312 166.8108062744141 415.57958984375 164.0379028320312 C 413.6017456054688 158.8919525146484 410.7613220214844 153.5747985839844 406.8959350585938 147.7827453613281 C 399.6748046875 136.9621124267578 390.1422729492188 126.432373046875 380.923583984375 116.2493286132812 C 370.9527282714844 105.2354888916016 361.534912109375 94.83242797851562 355.6841430664062 84.83296203613281 C 345.5806884765625 67.56521606445312 332.8768920898438 52.04965209960938 317.9255981445312 38.7171630859375 C 302.9132690429688 25.33026123046875 286.0125732421875 14.48300170898438 267.6930541992188 6.4766845703125 C 265.0686645507812 5.329742431640625 262.5563354492188 3.795074462890625 260.0122680664062 1.785003662109375 C 257.7804565429688 0.021636962890625 255.5758514404297 -2.06982421875 253.2725219726562 -4.60888671875 C 249.055419921875 -9.25762939453125 245.1564178466797 -14.720458984375 241.3857879638672 -20.00344848632812 C 236.6117401123047 -26.69229125976562 231.6752166748047 -33.60888671875 226.2265319824219 -38.62081909179688 C 223.3664703369141 -41.25167846679688 220.5865325927734 -43.17520141601562 217.7278442382812 -44.50131225585938 C 214.5764770507812 -45.9632568359375 211.3904266357422 -46.67388916015625 207.9875335693359 -46.67388916015625 M 207.9875335693359 -48.67388916015625 C 235.2503204345703 -48.67388916015625 244.930419921875 -5.654083251953125 268.4940185546875 4.644073486328125 C 305.7754211425781 20.93743896484375 336.9409484863281 48.8387451171875 357.4103698730469 83.82295227050781 C 373.9485168457031 112.0881195068359 420.8561096191406 145.1272277832031 420.8561096191406 180.3896942138672 C 420.8561096191406 218.0870666503906 372.5884704589844 253.2433776855469 353.7605285644531 282.9501037597656 C 319.8073120117188 336.5216369628906 259.92822265625 372.1235961914062 191.7339019775391 372.1235961914062 C 85.84222412109375 372.1235961914062 0 286.2813720703125 0 180.3896942138672 C 0 111.3488464355469 36.4913330078125 50.83096313476562 91.23712158203125 17.072265625 C 120.4603576660156 -0.948028564453125 171.1367340087891 -48.67388916015625 207.9875335693359 -48.67388916015625 Z"/>
    </g>
    <g id="Path_10" data-name="Path 10" class="cls-1" transform="translate(691.894 247.767)">
      <path class="cls-2" d="M189.183,0a190.087,190.087,0,0,1,42.738,4.849c11.839,2.723,27.942-4.956,39.049,0,12.384,5.526,42.619,41.708,53.594,49.82,24.255,21.1,40.439,49.867,49.973,96.458,2.506,12.243,17.014,25,17.014,38.057,0,19.12-16.021,37.578-21.282,54.929A189.28,189.28,0,0,1,88.9,349.627c-13.975-8.737-40.611-8.117-51.953-20.259-9.568-10.242-4.235-32.863-11.451-45.259A188.249,188.249,0,0,1,0,189.183C0,84.7,84.7,0,189.183,0Z"/>
      <path class="cls-5" d="M 189.18310546875 2 C 176.4816436767578 2 163.7888031005859 3.279510498046875 151.4570465087891 5.802947998046875 C 139.4397430419922 8.261993408203125 127.619140625 11.93136596679688 116.3236083984375 16.70895385742188 C 105.2326965332031 21.39999389648438 94.53530883789062 27.2064208984375 84.52865600585938 33.96676635742188 C 74.61654663085938 40.66326904296875 65.29559326171875 48.353759765625 56.82470703125 56.82464599609375 C 48.353759765625 65.29556274414062 40.66323852539062 74.61654663085938 33.96673583984375 84.52865600585938 C 27.20639038085938 94.53530883789062 21.40005493164062 105.232666015625 16.70895385742188 116.3236083984375 C 11.93133544921875 127.6191558837891 8.261993408203125 139.4397583007812 5.802947998046875 151.4570617675781 C 3.279510498046875 163.7888031005859 2 176.4816589355469 2 189.18310546875 C 2 205.9856567382812 4.224609375 222.6467132568359 8.612091064453125 238.7035064697266 C 12.861083984375 254.253662109375 19.12185668945312 269.1920166015625 27.22039794921875 283.1036071777344 C 30.74209594726562 289.1531982421875 31.44973754882812 297.2964172363281 32.13406372070312 305.1715698242188 C 32.52279663085938 309.6453247070312 32.9248046875 314.2713623046875 33.84420776367188 318.2913513183594 C 34.82861328125 322.5953979492188 36.32025146484375 325.7721557617188 38.40435791015625 328.0031127929688 C 41.08663940429688 330.8744506835938 45.0172119140625 333.2543029785156 50.42059326171875 335.2786560058594 C 55.37710571289062 337.1356201171875 61.05038452148438 338.5125122070312 66.53689575195312 339.843994140625 C 70.71896362304688 340.8590087890625 75.04339599609375 341.9085083007812 79.00640869140625 343.1624450683594 C 83.59518432617188 344.6144104003906 87.07464599609375 346.1298217773438 89.95651245117188 347.9315185546875 C 104.5671997070312 357.0658569335938 120.3111572265625 364.1268615722656 136.7509460449219 368.9182434082031 C 153.7077026367188 373.8603515625 171.3484497070312 376.3662109375 189.18310546875 376.3662109375 C 209.8493499755859 376.3662109375 230.1535491943359 373.0214233398438 249.5316467285156 366.4247436523438 C 268.26904296875 360.0462036132812 285.8197937011719 350.7471008300781 301.6964111328125 338.7858581542969 C 317.3993530273438 326.9554443359375 331.09423828125 312.8044128417969 342.4006042480469 296.7258911132812 C 353.8619384765625 280.427001953125 362.59423828125 262.5298461914062 368.3548583984375 243.5315093994141 C 370.4270935058594 236.697265625 374.0007934570312 229.928955078125 377.7843017578125 222.7633056640625 C 383.5690002441406 211.8076019287109 389.5505981445312 200.4789581298828 389.5505981445312 189.18310546875 C 389.5505981445312 186.2202606201172 388.6947937011719 182.9517517089844 386.9342956542969 179.1908111572266 C 385.3073425292969 175.7152557373047 383.081787109375 172.1668090820312 380.9295043945312 168.7352142333984 C 377.4046630859375 163.1151123046875 373.7597351074219 157.3036651611328 372.57763671875 151.5273590087891 C 367.9090881347656 128.7141571044922 361.6041564941406 109.9853515625 353.3024597167969 94.27081298828125 C 345.4513854980469 79.40924072265625 335.6397399902344 66.96429443359375 323.3097229003906 56.22833251953125 C 318.7771911621094 52.8575439453125 311.492919921875 45.31436157226562 303.0650634765625 36.5869140625 C 296.8580322265625 30.1593017578125 290.4397888183594 23.51284790039062 284.5513916015625 17.9591064453125 C 277.9704895019531 11.75225830078125 273.2615051269531 8.061309814453125 270.1552429199219 6.67535400390625 C 267.8399963378906 5.642303466796875 265.0491027832031 5.14019775390625 261.6229553222656 5.140350341796875 C 257.9365844726562 5.1405029296875 253.8892517089844 5.719268798828125 249.9752044677734 6.278961181640625 C 245.9443054199219 6.8553466796875 241.7761535644531 7.451416015625 237.8474426269531 7.451416015625 C 235.4696502685547 7.451416015625 233.3845520019531 7.2376708984375 231.4730529785156 6.798004150390625 C 224.6009063720703 5.21734619140625 217.5838928222656 4.012298583984375 210.6168518066406 3.21630859375 C 203.5526428222656 2.409271240234375 196.3412933349609 2 189.18310546875 2 M 189.18310546875 0 C 203.8177947998047 0 218.0643920898438 1.661712646484375 231.9213562011719 4.848907470703125 C 233.8014984130859 5.281341552734375 235.789306640625 5.451416015625 237.8474731445312 5.451416015625 C 245.4338989257812 5.451416015625 253.9794006347656 3.140716552734375 261.6228637695312 3.140350341796875 C 264.9628295898438 3.14019775390625 268.1290893554688 3.581207275390625 270.97021484375 4.848907470703125 C 283.3546447753906 10.37460327148438 313.5895385742188 46.5572509765625 324.5639953613281 54.66854858398438 C 348.8193054199219 75.763671875 365.0025939941406 104.5355529785156 374.5370483398438 151.1264038085938 C 377.0426635742188 163.3699035644531 391.5505981445312 176.1219635009766 391.5505981445312 189.18310546875 C 391.5505981445312 208.3035125732422 375.5296936035156 226.7614135742188 370.268798828125 244.1118621826172 C 346.7033996582031 321.8298034667969 274.545654296875 378.3662109375 189.18310546875 378.3662109375 C 152.4052429199219 378.3662109375 118.0784912109375 367.8716125488281 88.89630126953125 349.6273498535156 C 74.92095947265625 340.8901977539062 48.28546142578125 341.5103454589844 36.94284057617188 329.368408203125 C 27.37469482421875 319.1261596679688 32.707763671875 296.5051574707031 25.491943359375 284.1098022460938 C 9.323486328125 256.3358764648438 0 223.8482513427734 0 189.18310546875 C 0 84.70016479492188 84.7001953125 0 189.18310546875 0 Z"/>
    </g>
    <g id="Path_11" data-name="Path 11" class="cls-1" transform="translate(691.894 253.928)">
      <path class="cls-2" d="M192.579-48.037c31.747,0,40.39,40.4,77.686,58.064,33.412,14.441,78.056,50.653,96.234,88.718A192.745,192.745,0,0,1,250.574,365.239c-18.3,5.773-33.809,23.467-54.017,23.467-21.406,0-45.974-18.073-65.431-24.6a191.82,191.82,0,0,1-22.78-9.334c-19.76-9.611-44.8-8.182-60.253-23.88-15.085-15.322-20.608-47.752-29.977-67.69A193.39,193.39,0,0,1,6.587,131.431c7.065-26.317-16.8-70.118,0-90.842,14.549-17.946,68.795-13.628,89-25.45C123.976-1.472,157.161-48.037,192.579-48.037Z"/>
      <path class="cls-5" d="M 192.5792236328125 -46.03741455078125 C 189.8968811035156 -46.03741455078125 187.1219940185547 -45.75048828125 184.33154296875 -45.18447875976562 C 181.6629333496094 -44.64324951171875 178.8930511474609 -43.8291015625 176.098876953125 -42.7646484375 C 170.9144897460938 -40.78970336914062 165.5582122802734 -37.95358276367188 159.723876953125 -34.0943603515625 C 148.8259887695312 -26.88571166992188 138.2236022949219 -17.37136840820312 127.9703216552734 -8.170318603515625 C 116.9718322753906 1.699462890625 106.5833129882812 11.0218505859375 96.59649658203125 16.86517333984375 C 87.58673095703125 22.1368408203125 72.67193603515625 24.23495483398438 56.88150024414062 26.4561767578125 C 46.78448486328125 27.87652587890625 36.34378051757812 29.34524536132812 27.55410766601562 31.70135498046875 C 17.936279296875 34.2794189453125 11.5860595703125 37.59857177734375 8.14056396484375 41.8485107421875 C 6.03411865234375 44.44668579101562 4.5567626953125 47.50091552734375 3.624053955078125 51.18557739257812 C 2.7723388671875 54.55050659179688 2.3955078125 58.3695068359375 2.47198486328125 62.86090087890625 C 2.616943359375 71.37051391601562 4.419158935546875 81.05828857421875 6.1619873046875 90.42718505859375 C 7.508331298828125 97.66439819335938 8.900482177734375 105.1480102539062 9.5482177734375 112.148681640625 C 9.900604248046875 115.9576263427734 10.00994873046875 119.3182983398438 9.88232421875 122.4225769042969 C 9.737091064453125 125.9556884765625 9.290985107421875 129.0717926025391 8.51861572265625 131.9490661621094 C 4.19317626953125 148.0610198974609 2 164.7477416992188 2 181.5458526611328 C 2 195.7515716552734 3.56817626953125 209.9165191650391 6.66094970703125 223.6470642089844 C 9.66644287109375 236.9905090332031 14.12960815429688 250.0111236572266 19.9263916015625 262.3472900390625 C 23.19989013671875 269.313720703125 25.95098876953125 277.6006164550781 28.8636474609375 286.3741149902344 C 31.56961059570312 294.5249633789062 34.36767578125 302.9533081054688 37.69378662109375 310.530029296875 C 41.39566040039062 318.962890625 45.26348876953125 325.1630249023438 49.51821899414062 329.4846801757812 C 51.67889404296875 331.6794128417969 54.08010864257812 333.5785827636719 56.85910034179688 335.2908020019531 C 59.35989379882812 336.8315734863281 62.1168212890625 338.187744140625 65.28750610351562 339.4368896484375 C 71.26217651367188 341.7907409667969 77.60537719726562 343.3412475585938 84.321044921875 344.9827270507812 C 92.70120239257812 347.0311279296875 101.3667297363281 349.1492919921875 109.2207641601562 352.9694519042969 C 116.5715942382812 356.5449523925781 124.1558227539062 359.6525268554688 131.7626647949219 362.2056884765625 C 138.7591094970703 364.5541381835938 146.2391052246094 368.2847290039062 154.1582794189453 372.2343444824219 C 161.2380523681641 375.7652893066406 168.5588226318359 379.4164733886719 175.7748870849609 382.1626892089844 C 183.8077239990234 385.2197265625 190.6055450439453 386.705810546875 196.5568237304688 386.705810546875 C 199.3144378662109 386.705810546875 202.0443267822266 386.3650207519531 204.9024353027344 385.6640014648438 C 207.4734344482422 385.033447265625 210.0923767089844 384.1231384277344 212.9087677001953 382.8811340332031 C 218.2161560058594 380.5406188964844 223.4452209472656 377.3388977050781 228.5021667480469 374.2425842285156 C 235.3559875488281 370.0459594726562 242.4431610107422 365.7065124511719 249.9725494384766 363.3317260742188 C 269.0545959472656 357.3132934570312 287.0140380859375 348.33447265625 303.3521118164062 336.6446228027344 C 319.4813842773438 325.1041259765625 333.6681518554688 311.1859130859375 345.5182800292969 295.276611328125 C 357.504150390625 279.18505859375 366.8194885253906 261.4260864257812 373.2055053710938 242.4929046630859 C 379.8097839355469 222.9126892089844 383.158447265625 202.4071197509766 383.158447265625 181.5458526611328 C 383.158447265625 167.1321868896484 381.5438232421875 152.7657318115234 378.3594360351562 138.8455657958984 C 375.26416015625 125.3151245117188 370.6664428710938 112.1131896972656 364.6939392089844 99.60639953613281 C 360.399169921875 90.61285400390625 354.4249877929688 81.36264038085938 346.9375 72.1126708984375 C 339.9777221679688 63.51461791992188 331.8458251953125 55.0731201171875 322.767822265625 47.02273559570312 C 314.1848754882812 39.41140747070312 305.0924987792969 32.43917846679688 295.7432250976562 26.2996826171875 C 286.630615234375 20.31561279296875 277.7914428710938 15.4581298828125 269.4713745117188 11.8621826171875 L 269.4397583007812 11.8485107421875 L 269.4086608886719 11.83380126953125 C 252.0931701660156 3.631683349609375 240.7939453125 -9.3909912109375 230.8248291015625 -20.88058471679688 C 224.9321594238281 -27.67208862304688 219.3662719726562 -34.0869140625 213.2590484619141 -38.69577026367188 C 206.6217651367188 -43.70452880859375 200.0505981445312 -46.03741455078125 192.5792236328125 -46.03741455078125 M 192.5792236328125 -48.03741455078125 C 224.3262176513672 -48.03741455078125 232.9687652587891 -7.6402587890625 270.2648315429688 10.02630615234375 C 303.6773376464844 24.46734619140625 348.3209533691406 60.67929077148438 366.4987182617188 98.74456787109375 C 378.4466552734375 123.7641754150391 385.158447265625 151.8711853027344 385.158447265625 181.5458526611328 C 385.158447265625 267.695556640625 328.5899963378906 340.6330261230469 250.5741577148438 365.2391357421875 C 232.2698822021484 371.0122375488281 216.7656555175781 388.705810546875 196.5568237304688 388.705810546875 C 175.1507110595703 388.705810546875 150.5828247070312 370.632568359375 131.126220703125 364.1017456054688 C 123.4170532226562 361.5141906738281 115.7562255859375 358.3724060058594 108.345947265625 354.7680053710938 C 88.58615112304688 345.1568603515625 63.54800415039062 346.5862426757812 48.09298706054688 330.8877868652344 C 33.00778198242188 315.5653381347656 27.4849853515625 283.1358032226562 18.11627197265625 263.1978454589844 C 6.520721435546875 238.5213012695312 0 210.7950134277344 0 181.5458526611328 C 0 164.2362976074219 2.283660888671875 147.4601287841797 6.587005615234375 131.4305114746094 C 13.65200805664062 105.1134033203125 -10.21456909179688 61.31289672851562 6.587005615234375 40.58895874023438 C 21.13623046875 22.64291381835938 75.3817138671875 26.96084594726562 95.58648681640625 15.13894653320312 C 123.9765014648438 -1.472137451171875 157.1612701416016 -48.03741455078125 192.5792236328125 -48.03741455078125 Z"/>
    </g>
    <g id="Path_12" data-name="Path 12" class="cls-1" transform="translate(691.894 247.767)">
      <path class="cls-2" d="M190.411,0C295.573,0,380.823,85.25,380.823,190.411s-85.25,190.411-190.411,190.411c-12.984,0-46.753,17.1-61.048,16.994C98.25,397.581,92.32,360.6,70.61,344.844,23.065,310.328,0,253.824,0,190.411,0,85.25,85.25,0,190.411,0Z"/>
      <path class="cls-5" d="M 190.4114532470703 2 C 177.6266479492188 2 164.8505096435547 3.28790283203125 152.4378509521484 5.827880859375 C 140.3417053222656 8.3031005859375 128.4434967041016 11.99649047851562 117.0737915039062 16.80548095703125 C 105.9100952148438 21.52734375 95.14254760742188 27.37179565429688 85.0701904296875 34.17654418945312 C 75.09304809570312 40.91693115234375 65.71096801757812 48.657958984375 57.1844482421875 57.1844482421875 C 48.657958984375 65.7109375 40.91696166992188 75.09304809570312 34.17654418945312 85.0701904296875 C 27.37179565429688 95.14254760742188 21.52734375 105.9100952148438 16.80551147460938 117.0737915039062 C 11.99649047851562 128.4434814453125 8.3031005859375 140.3417053222656 5.827911376953125 152.4378509521484 C 3.28790283203125 164.8504943847656 2 177.6266479492188 2 190.4114379882812 C 2 206.1764984130859 3.449798583984375 221.5326995849609 6.309112548828125 236.0534973144531 C 9.2054443359375 250.7625427246094 13.577392578125 264.7584228515625 19.303466796875 277.65234375 C 25.15023803710938 290.8182373046875 32.478759765625 302.9889526367188 41.08529663085938 313.8263549804688 C 49.93609619140625 324.9713439941406 60.2650146484375 334.86279296875 71.78500366210938 343.2258911132812 C 80.23776245117188 349.3623352050781 86.34246826171875 358.5462341308594 92.24615478515625 367.4277954101562 C 97.17355346679688 374.8405456542969 101.8276672363281 381.8421936035156 107.6907958984375 387.1414794921875 C 110.7761535644531 389.9300842285156 113.9080505371094 391.9781494140625 117.2655029296875 393.402587890625 C 121.0162658691406 394.9939575195312 124.9785003662109 395.7837524414062 129.37890625 395.817138671875 C 129.4190979003906 395.8174438476562 129.4591979980469 395.8175964355469 129.499755859375 395.8175964355469 C 136.5252532958984 395.8175964355469 148.8364562988281 391.38818359375 160.7423095703125 387.1046447753906 C 172.5797576904297 382.8456420898438 183.7607574462891 378.8229064941406 190.4114532470703 378.8229064941406 C 203.1962585449219 378.8229064941406 215.9723968505859 377.5350036621094 228.3850555419922 374.9949951171875 C 240.481201171875 372.5198059082031 252.3794097900391 368.8263854980469 263.7490539550781 364.0173950195312 C 274.9128112792969 359.2955322265625 285.6803588867188 353.4511108398438 295.7526550292969 346.6463317871094 C 305.7297973632812 339.9059448242188 315.1119384765625 332.1649475097656 323.6384582519531 323.638427734375 C 332.1649475097656 315.1119384765625 339.9059448242188 305.7298583984375 346.6463623046875 295.752685546875 C 353.4511108398438 285.6803588867188 359.2955627441406 274.9127807617188 364.0173950195312 263.7490844726562 C 368.826416015625 252.37939453125 372.5198059082031 240.481201171875 374.9949951171875 228.3850402832031 C 377.5350036621094 215.9723968505859 378.8229064941406 203.1962432861328 378.8229064941406 190.4114379882812 C 378.8229064941406 177.6266479492188 377.5350036621094 164.8504943847656 374.9949951171875 152.4378509521484 C 372.5198059082031 140.3417053222656 368.826416015625 128.4434814453125 364.0173950195312 117.0737915039062 C 359.2955627441406 105.9100952148438 353.4511108398438 95.14254760742188 346.6463623046875 85.0701904296875 C 339.9059448242188 75.09304809570312 332.1649475097656 65.7109375 323.6384582519531 57.1844482421875 C 315.1119384765625 48.657958984375 305.7297973632812 40.91693115234375 295.7526550292969 34.17654418945312 C 285.6803588867188 27.37179565429688 274.9128112792969 21.52734375 263.7490539550781 16.80548095703125 C 252.3794097900391 11.99649047851562 240.481201171875 8.3031005859375 228.3850555419922 5.827880859375 C 215.9723968505859 3.28790283203125 203.1962585449219 2 190.4114532470703 2 M 190.4114532470703 0 C 295.57275390625 0 380.8229064941406 85.25009155273438 380.8229064941406 190.4114379882812 C 380.8229064941406 295.5727844238281 295.57275390625 380.8229064941406 190.4114532470703 380.8229064941406 C 177.4687652587891 380.8229064941406 143.8721160888672 397.8175964355469 129.499755859375 397.8175964355469 C 129.4539947509766 397.8175964355469 129.4088287353516 397.8174438476562 129.3634490966797 397.8171081542969 C 98.25039672851562 397.5808410644531 92.31964111328125 360.6048583984375 70.61004638671875 344.8443908691406 C 23.06484985351562 310.3283386230469 0 253.8238983154297 0 190.4114379882812 C 0 85.25009155273438 85.25009155273438 0 190.4114532470703 0 Z"/>
    </g>
    <g id="Path_13" data-name="Path 13" class="cls-1" transform="translate(691.894 248.218)">
      <path class="cls-2" d="M189.451-.852C294.081-.852,378.9,83.967,378.9,188.6a191.679,191.679,0,0,1-2.016,27.73c-2.542,17.466,12.82,44.325,5.711,60.123-7.47,16.6-37.715,21.978-49.591,35.779a188.94,188.94,0,0,1-143.554,65.818,192.14,192.14,0,0,1-22.57-1.33c-16.206-1.909-35.426,5.844-50.329,0-15.776-6.187-27.081-26.283-40.588-36.408A189.428,189.428,0,0,1,48.8,61.706C63.089,45.862,62.153,9.521,81.212-.852c16.242-8.84,52.028,7.447,71.07,3.64A190.067,190.067,0,0,1,189.451-.852Z"/>
      <path class="cls-5" d="M 94.32107543945312 -1.51983642578125 C 89.13995361328125 -1.51953125 85.16473388671875 -0.72662353515625 82.16824340820312 0.904205322265625 C 79.80313110351562 2.19140625 77.7076416015625 3.9420166015625 75.76199340820312 6.256103515625 C 73.98797607421875 8.366119384765625 72.3785400390625 10.9000244140625 70.8416748046875 14.00265502929688 C 67.92547607421875 19.88995361328125 65.731689453125 26.97421264648438 63.61007690429688 33.82525634765625 C 61.95159912109375 39.18081665039062 60.23660278320312 44.71871948242188 58.17294311523438 49.70816040039062 C 55.81085205078125 55.41921997070312 53.23233032226562 59.78176879882812 50.29013061523438 63.04507446289062 C 42.76412963867188 71.39236450195312 35.95504760742188 80.44781494140625 30.05209350585938 89.9599609375 C 24.08853149414062 99.56967163085938 18.97824096679688 109.7614135742188 14.86309814453125 120.2520751953125 C 10.67520141601562 130.9282684326172 7.462738037109375 142.0564727783203 5.31494140625 153.3276214599609 C 3.11529541015625 164.8708648681641 2 176.7375640869141 2 188.5981750488281 C 2 203.6604614257812 3.7913818359375 218.6470642089844 7.324493408203125 233.1416168212891 C 10.7572021484375 247.2244567871094 15.84988403320312 260.9176635742188 22.461181640625 273.8408813476562 C 28.9561767578125 286.536865234375 36.92922973632812 298.5172729492188 46.15878295898438 309.4493713378906 C 55.3428955078125 320.3275146484375 65.77444458007812 330.1723022460938 77.1636962890625 338.710205078125 C 82.67984008789062 342.8453674316406 87.87823486328125 348.6395263671875 92.90548706054688 354.2429809570312 C 100.4278869628906 362.6275024414062 108.2064514160156 371.2975769042969 117.2821350097656 374.8565673828125 C 120.8577880859375 376.2588195800781 125.0553283691406 376.9404602050781 130.1146545410156 376.9404602050781 C 135.0340881347656 376.9404602050781 140.3045959472656 376.3045654296875 145.4015350341797 375.6896667480469 C 150.6244354248047 375.0595092773438 156.0251922607422 374.4079284667969 161.2019348144531 374.4079284667969 C 163.3278350830078 374.4079284667969 165.2618865966797 374.5140075683594 167.1146392822266 374.7322692871094 C 174.6348876953125 375.6182250976562 181.9410400390625 376.0488586425781 189.45068359375 376.0488586425781 C 203.4024963378906 376.0488586425781 217.3157958984375 374.5097045898438 230.8041839599609 371.4741821289062 C 243.9217834472656 368.5220642089844 256.7492065429688 364.1312255859375 268.9300537109375 358.4236755371094 C 280.8878479003906 352.820556640625 292.2926940917969 345.9169616699219 302.8278503417969 337.9046020507812 C 313.2837829589844 329.9524536132812 322.9267883300781 320.8755798339844 331.4889526367188 310.926025390625 C 333.9590454101562 308.0556640625 337.3863525390625 305.2889099121094 341.9666442871094 302.4676513671875 C 345.9662475585938 300.004150390625 350.4635925292969 297.7208862304688 354.8128356933594 295.5128173828125 C 360.3133850097656 292.72021484375 366.0011901855469 289.83251953125 370.6717834472656 286.582763671875 C 373.1342468261719 284.8694763183594 375.1248779296875 283.19580078125 376.7575378417969 281.46630859375 C 378.5433959960938 279.574462890625 379.856689453125 277.6656188964844 380.7724914550781 275.630615234375 C 381.6334533691406 273.717529296875 382.1585998535156 271.5695190429688 382.3779296875 269.0639038085938 C 382.5791931152344 266.7653198242188 382.5163269042969 264.221923828125 382.1858825683594 261.2883605957031 C 381.5589904785156 255.7234191894531 380.0381469726562 249.5878601074219 378.5672912597656 243.6543731689453 C 377.3894348144531 238.9026641845703 376.1714782714844 233.9891662597656 375.4102478027344 229.3629608154297 C 374.52587890625 223.98876953125 374.3658447265625 219.7554168701172 374.9065551757812 216.0402679443359 C 376.2488403320312 206.818115234375 376.9013366699219 197.8417663574219 376.9013366699219 188.5981750488281 C 376.9013366699219 175.8785705566406 375.6200256347656 163.1675720214844 373.0929870605469 150.8182220458984 C 370.6304016113281 138.7837219238281 366.9557800292969 126.9462127685547 362.1713256835938 115.634521484375 C 357.4736022949219 104.5277099609375 351.658935546875 93.8150634765625 344.8888854980469 83.79412841796875 C 338.1828308105469 73.86785888671875 330.4813232421875 64.5335693359375 321.998291015625 56.05056762695312 C 313.5152893066406 47.5675048828125 304.1809997558594 39.86602783203125 294.2547302246094 33.15997314453125 C 284.2337951660156 26.38992309570312 273.5211486816406 20.57525634765625 262.4143371582031 15.87753295898438 C 251.1026458740234 11.09307861328125 239.26513671875 7.41845703125 227.2306365966797 4.95587158203125 C 214.8812866210938 2.4288330078125 202.1702880859375 1.14752197265625 189.45068359375 1.14752197265625 C 177.0013885498047 1.14752197265625 164.6281433105469 2.3592529296875 152.6745452880859 4.749176025390625 C 150.5674438476562 5.17041015625 148.2487335205078 5.37518310546875 145.5859832763672 5.37518310546875 C 137.9835357666016 5.37518310546875 128.8603515625 3.628631591796875 120.0374755859375 1.93951416015625 C 111.1525268554688 0.238555908203125 101.965087890625 -1.520294189453125 94.32107543945312 -1.51983642578125 M 94.32098388671875 -3.51983642578125 C 109.8447265625 -3.520751953125 130.6219787597656 3.37518310546875 145.5859680175781 3.37518310546875 C 147.9836273193359 3.37518310546875 150.2288360595703 3.198516845703125 152.2824859619141 2.7879638671875 C 164.1366424560547 0.41796875 176.6452941894531 -0.85247802734375 189.45068359375 -0.85247802734375 C 294.0813903808594 -0.85247802734375 378.9013366699219 83.96746826171875 378.9013366699219 188.5981750488281 C 378.9013366699219 197.9414672851562 378.2249755859375 207.1267700195312 376.8856811523438 216.3283233642578 C 374.34375 233.7944183349609 389.7057800292969 260.6537170410156 382.5962829589844 276.451416015625 C 375.1262512207031 293.0506591796875 344.8817749023438 298.42919921875 333.0048828125 312.2305603027344 C 298.3646240234375 352.4838256835938 246.8931884765625 378.0488586425781 189.45068359375 378.0488586425781 C 181.8706359863281 378.0488586425781 174.3945465087891 377.6037292480469 166.8806457519531 376.718505859375 C 165.0240478515625 376.4998168945312 163.1266174316406 376.4078979492188 161.2019348144531 376.4078979492188 C 151.094482421875 376.4078979492188 140.1995697021484 378.9404602050781 130.1146545410156 378.9404602050781 C 125.3571472167969 378.9404602050781 120.7814636230469 378.3771667480469 116.5519409179688 376.718505859375 C 100.7755432128906 370.5318298339844 89.4708251953125 350.4357604980469 75.96405029296875 340.3104553222656 C 29.8270263671875 305.72412109375 0 250.6443786621094 0 188.5981750488281 C 0 139.8634185791016 18.40170288085938 95.42657470703125 48.80474853515625 61.705810546875 C 63.08938598632812 45.86221313476562 62.152587890625 9.5206298828125 81.21218872070312 -0.85247802734375 C 84.77001953125 -2.788848876953125 89.26885986328125 -3.51953125 94.32098388671875 -3.51983642578125 Z"/>
    </g>
    <g id="Path_14" data-name="Path 14" class="cls-1" transform="translate(701 257)">
      <path class="cls-2" d="M179.933-71.989c54.182,0,103.215,78.325,138.674,114,35.057,35.271,110.95,83.954,110.95,137.7,0,55.477-77.309,105.556-114.432,141.126-35.107,33.638-82.736,106.53-135.191,106.53-52.239,0-99.692-72.722-134.758-106.116C7.8,285.663-71,235.411-71,179.717c0-50.3,74.5-96.156,105.86-130.948C70.487,9.237,122.3-71.989,179.933-71.989Z"/>
      <path class="cls-5" d="M 179.9328155517578 -69.9892578125 C 174.5043792724609 -69.9892578125 168.9065093994141 -69.22918701171875 163.2946929931641 -67.73019409179688 C 157.9673767089844 -66.30718994140625 152.4642639160156 -64.17462158203125 146.9382019042969 -61.39175415039062 C 141.7371368408203 -58.77249145507812 136.3522644042969 -55.4945068359375 130.9331970214844 -51.6488037109375 C 125.8990020751953 -48.07626342773438 120.6653900146484 -43.89251708984375 115.3777008056641 -39.21392822265625 C 94.92401123046875 -21.11605834960938 76.03033447265625 2.131988525390625 59.36074829101562 22.643310546875 C 51.16476440429688 32.72824096679688 43.42324829101562 42.25387573242188 36.34518432617188 50.1075439453125 C 27.580078125 59.83306884765625 15.4896240234375 70.40213012695312 2.68927001953125 81.5916748046875 C -5.683319091796875 88.91067504882812 -14.3409423828125 96.4788818359375 -22.66567993164062 104.3223724365234 C -32.07073974609375 113.1838073730469 -39.64181518554688 121.0930023193359 -45.81161499023438 128.5018768310547 C -53.25741577148438 137.4430541992188 -58.74456787109375 145.7106781005859 -62.586669921875 153.7771148681641 C -64.66793823242188 158.1466217041016 -66.26123046875 162.4891204833984 -67.32229614257812 166.6839904785156 C -68.435546875 171.0851135253906 -69 175.4700012207031 -69 179.7168731689453 C -69 198.5694885253906 -59.702880859375 218.49755859375 -40.57730102539062 240.6396789550781 C -23.79998779296875 260.0631713867188 -1.991607666015625 278.2854919433594 17.24945068359375 294.3626708984375 C 28.09182739257812 303.4221801757812 38.3328857421875 311.979248046875 46.55361938476562 319.8079833984375 C 55.20343017578125 328.0453186035156 64.60244750976562 338.6594848632812 74.55325317382812 349.8968811035156 C 82.2755126953125 358.6176147460938 90.26077270507812 367.63525390625 98.61224365234375 376.3726806640625 C 108.0661315917969 386.263427734375 116.5301361083984 394.2399291992188 124.4878234863281 400.7578735351562 C 129.0863189697266 404.5243530273438 133.6258239746094 407.8873596191406 137.9801940917969 410.7535705566406 C 142.6545715332031 413.830322265625 147.2903900146484 416.4501342773438 151.7589416503906 418.5403137207031 C 156.4943237304688 420.7552490234375 161.2040100097656 422.4515686035156 165.7570037841797 423.5820617675781 C 170.5418243408203 424.7701110839844 175.3112640380859 425.3724975585938 179.9328155517578 425.3724975585938 C 184.5890655517578 425.3724975585938 189.3940734863281 424.7648010253906 194.2143859863281 423.5663146972656 C 198.8006896972656 422.4259338378906 203.5444488525391 420.7149963378906 208.3138885498047 418.4808654785156 C 212.8140106201172 416.3729858398438 217.4821319580078 413.7309875488281 222.1886901855469 410.62841796875 C 226.5726318359375 407.7385559082031 231.1423797607422 404.3479919433594 235.7709350585938 400.5508117675781 C 243.7797546386719 393.9807434082031 252.2952575683594 385.9424438476562 261.803955078125 375.9766235351562 C 270.2023315429688 367.1744995117188 278.2255249023438 358.0966186523438 285.9844970703125 349.317626953125 C 295.8491821289062 338.1561279296875 305.1668090820312 327.6136779785156 313.7405700683594 319.3985595703125 C 321.7932739257812 311.6828002929688 331.74755859375 303.2701110839844 342.2863159179688 294.3634948730469 C 361.3088073730469 278.287109375 382.8693237304688 260.065673828125 399.4553833007812 240.6439361572266 C 418.3646240234375 218.5018005371094 427.556640625 198.5724334716797 427.556640625 179.7168731689453 C 427.556640625 161.9250640869141 418.968017578125 143.0714263916016 401.3000183105469 122.0786895751953 C 394.3628234863281 113.8359985351562 385.8860778808594 105.0865631103516 375.3854370117188 95.33023071289062 C 366.1195678710938 86.72125244140625 356.5979309082031 78.53204345703125 347.3898315429688 70.612548828125 C 336.1385803222656 60.93588256835938 325.5113220214844 51.79580688476562 317.1882019042969 43.4217529296875 C 308.6451416015625 34.82650756835938 299.2994384765625 23.74856567382812 289.4050598144531 12.02011108398438 C 281.4566345214844 2.598358154296875 273.2375793457031 -7.144134521484375 264.5982055664062 -16.62380981445312 C 254.8076324462891 -27.3665771484375 246.0276336669922 -36.03851318359375 237.7563781738281 -43.13507080078125 C 216.6953277587891 -61.2052001953125 197.7810668945312 -69.9892578125 179.9328155517578 -69.9892578125 M 179.9328155517578 -71.9892578125 C 234.1150665283203 -71.9892578125 283.1473388671875 6.33575439453125 318.606689453125 42.01187133789062 C 353.6634521484375 77.28292846679688 429.556640625 125.9658050537109 429.556640625 179.7168731689453 C 429.556640625 235.1943054199219 352.2472534179688 285.2726135253906 315.124267578125 320.8426818847656 C 280.0177001953125 354.4806823730469 232.3887634277344 427.3724975585938 179.9328155517578 427.3724975585938 C 127.6933898925781 427.3724975585938 80.24118041992188 354.6509399414062 45.17437744140625 321.2563171386719 C 7.7991943359375 285.6633605957031 -71 235.4107360839844 -71 179.7168731689453 C -71 129.4202423095703 3.50262451171875 83.56130981445312 34.8594970703125 48.76861572265625 C 70.487060546875 9.2369384765625 122.2961883544922 -71.9892578125 179.9328155517578 -71.9892578125 Z"/>
    </g>
  </g>
</svg>
